<mxfile host="app.diagrams.net" modified="2024-01-18T12:35:59.405Z" agent="Mozilla/5.0 (Macintosh; Intel Mac OS X 10_15_7) AppleWebKit/605.1.15 (KHTML, like Gecko) Version/16.1 Safari/605.1.15" version="22.1.21" etag="UP-D4DeFTh3922_kq6Jr" type="github">
  <diagram name="Page-1" id="Em9YSa3hVXJ2IB0oJJab">
    <mxGraphModel>
      <root>
        <mxCell id="0" />
        <mxCell id="1" parent="0" />
      </root>
    </mxGraphModel>
  </diagram>
</mxfile>
